<?xml version="1.0" standalone="no"?>
<!DOCTYPE svg PUBLIC "-//W3C//DTD SVG 20010904//EN"
 "http://www.w3.org/TR/2001/REC-SVG-20010904/DTD/svg10.dtd">
<svg version="1.0" xmlns="http://www.w3.org/2000/svg"
 width="2048.000000pt" height="2048.000000pt" viewBox="0 0 2048.000000 2048.000000"
 preserveAspectRatio="xMidYMid meet">

<g transform="translate(0.000000,2048.000000) scale(0.100000,-0.100000)"
fill="#000000" stroke="none">
<path d="M10168 14899 c-63 -10 -143 -55 -180 -101 -86 -108 -91 -272 -12
-375 l25 -34 -171 -239 -171 -240 -52 0 c-29 0 -139 -5 -244 -12 l-193 -12 0
-34 0 -35 88 6 c229 17 332 20 332 9 0 -32 -707 -932 -732 -932 -5 0 -6 15 -3
33 9 52 25 362 25 485 l0 112 -30 0 c-29 0 -30 -2 -30 -42 -1 -202 -38 -686
-55 -713 -20 -31 -186 -222 -370 -425 -92 -102 -171 -189 -175 -193 -4 -5 -34
6 -66 25 -55 31 -65 33 -154 33 -84 0 -101 -3 -146 -27 -59 -31 -108 -84 -138
-147 -32 -71 -30 -199 6 -267 32 -60 94 -119 156 -146 63 -28 171 -28 233 -1
l47 21 77 -115 c43 -63 124 -176 180 -252 l103 -138 -54 -225 -55 -226 -77 -4
c-160 -8 -268 -108 -287 -269 -28 -230 209 -403 422 -309 57 25 117 81 144
133 11 20 21 37 24 37 2 0 73 -18 157 -40 136 -35 343 -78 525 -110 l61 -11
321 -321 322 -321 -20 -21 c-11 -12 -31 -46 -45 -76 -31 -66 -35 -161 -9 -236
23 -67 110 -154 177 -177 157 -53 322 16 390 162 43 94 21 257 -44 327 -22 23
-35 2 190 324 52 74 112 161 134 193 22 32 47 57 57 57 62 0 425 34 583 55
104 14 193 25 198 25 4 0 8 16 8 35 0 31 -3 35 -22 31 -64 -13 -173 -27 -358
-45 -324 -31 -360 -34 -360 -23 0 20 856 1221 871 1222 3 0 9 -42 13 -92 8
-111 74 -703 81 -736 5 -20 10 -23 33 -17 15 4 28 7 29 8 1 1 -7 74 -18 162
-10 88 -30 273 -44 410 -13 138 -27 273 -30 301 l-5 51 192 257 c147 197 195
255 207 250 69 -29 101 -36 161 -32 82 6 146 34 199 87 59 59 83 113 89 197 8
128 -46 226 -159 289 -49 27 -63 30 -144 30 -77 0 -96 -3 -133 -25 -35 -20
-45 -22 -52 -11 -13 23 -145 192 -298 384 l-142 179 2 246 3 245 41 12 c141
42 224 153 224 303 0 169 -130 292 -309 292 -75 0 -117 -11 -173 -47 -48 -29
-103 -105 -119 -161 l-12 -42 -61 6 c-33 3 -134 11 -223 18 l-162 11 -251 249
-252 249 29 56 c36 72 43 175 18 252 -43 129 -190 211 -337 188z m52 -594 c69
0 93 4 128 23 23 12 48 22 55 22 13 -1 454 -427 447 -432 -3 -2 -252 -2 -553
1 l-549 6 104 145 c57 80 125 175 151 212 l47 66 42 -21 c34 -17 61 -22 128
-22z m625 -462 l90 -7 172 -180 c176 -186 352 -383 499 -563 l84 -101 0 -109
c0 -208 45 -1059 70 -1332 5 -57 7 -108 3 -115 -4 -6 -79 -111 -168 -233 -231
-319 -368 -511 -592 -828 l-198 -280 -295 1 c-180 1 -373 8 -495 18 -215 18
-547 54 -581 62 -12 3 -43 31 -70 62 -27 31 -98 111 -158 177 -169 186 -364
419 -573 686 l-52 66 20 94 c86 410 177 959 219 1333 11 93 25 176 32 185 7 9
35 43 63 76 156 184 729 921 762 980 6 11 38 15 128 18 165 6 929 -2 1040 -10z
m489 -32 l70 -6 11 -51 c6 -28 24 -72 38 -97 46 -78 91 -107 225 -143 9 -3 12
-52 12 -205 0 -110 -4 -199 -9 -197 -4 2 -91 99 -191 217 -101 117 -244 275
-317 351 -73 76 -133 141 -133 145 0 6 140 0 294 -14z m532 -1036 c239 -299
287 -367 275 -384 -6 -9 -23 -38 -36 -66 -47 -95 -26 -271 38 -324 10 -7 17
-18 17 -24 0 -15 -319 -437 -330 -437 -6 0 -10 12 -10 28 0 15 -7 115 -15 222
-27 371 -58 1085 -48 1103 6 11 10 7 109 -118z m-3131 -343 c-29 -223 -102
-672 -159 -974 -20 -103 -36 -192 -36 -198 0 -39 -70 47 -230 284 -93 137 -94
138 -77 165 83 133 94 239 37 351 l-21 40 137 148 c76 81 189 207 253 279 64
73 118 128 119 123 2 -6 -8 -104 -23 -218z m-65 -1484 c142 -181 286 -352 468
-556 90 -101 162 -186 159 -188 -11 -11 -537 103 -618 134 -24 10 -27 16 -31
79 -3 40 -13 84 -26 108 -19 38 -96 117 -135 140 -17 9 -15 22 23 185 23 96
43 185 46 198 2 12 8 22 12 22 4 0 50 -55 102 -122z m1100 -878 c283 -28 443
-39 726 -46 l251 -7 -86 -121 c-46 -67 -124 -178 -173 -248 l-88 -126 -53 20
c-66 26 -166 27 -225 3 -38 -15 -44 -16 -65 -2 -33 22 -513 494 -538 529 l-22
30 39 -6 c21 -3 127 -15 234 -26z"/>
<path d="M10390 13625 c-389 -71 -785 -381 -1084 -848 -198 -311 -345 -694
-392 -1024 -22 -156 -22 -397 0 -522 19 -102 68 -266 88 -294 20 -26 133 -32
255 -13 369 56 618 270 736 631 35 107 60 215 96 420 39 218 91 422 137 538
186 467 472 768 837 882 l88 28 -38 27 c-221 160 -470 220 -723 175z"/>
<path d="M11195 13226 c-191 -50 -305 -115 -450 -261 -152 -152 -270 -347
-345 -574 -38 -113 -61 -216 -115 -531 -70 -399 -185 -713 -348 -947 -116
-166 -292 -329 -454 -419 -29 -16 -53 -31 -53 -34 0 -9 139 -60 220 -82 97
-26 300 -28 410 -4 272 59 477 181 725 430 277 279 484 622 621 1032 153 460
151 924 -6 1249 -39 81 -94 165 -108 165 -4 -1 -47 -11 -97 -24z"/>
<path d="M9511 10783 c-98 -41 -240 -73 -326 -73 l-59 0 54 -55 c30 -30 61
-55 70 -55 25 0 176 86 266 151 46 33 84 62 84 65 0 2 -1 4 -2 3 -2 0 -41 -17
-87 -36z"/>
<path d="M6535 7846 c-236 -55 -388 -199 -445 -422 -72 -282 50 -567 292 -682
107 -52 172 -67 283 -66 154 1 294 52 399 146 31 27 56 53 56 58 0 4 -22 27
-50 50 l-50 42 -47 -42 c-95 -83 -190 -114 -333 -108 -84 3 -105 8 -161 35
-164 81 -249 220 -249 407 0 169 67 300 195 381 170 108 392 93 538 -35 25
-22 49 -40 54 -40 5 0 30 22 56 48 l47 48 -37 36 c-53 51 -146 105 -223 129
-85 26 -244 34 -325 15z"/>
<path d="M7865 7850 c-255 -38 -437 -203 -491 -447 -22 -98 -15 -252 15 -337
60 -169 175 -287 346 -352 83 -32 254 -44 345 -25 131 28 254 100 330 194 195
240 183 575 -27 798 -127 135 -323 198 -518 169z m176 -140 c132 -25 252 -119
312 -247 27 -59 32 -81 35 -170 3 -83 0 -115 -16 -170 -65 -213 -260 -334
-487 -302 -246 34 -410 267 -367 522 43 256 268 414 523 367z"/>
<path d="M12344 7851 c-234 -38 -413 -191 -478 -411 -25 -84 -30 -212 -12
-303 40 -204 171 -355 366 -424 107 -38 255 -43 369 -14 149 37 257 112 339
234 72 108 97 195 97 337 0 94 -4 128 -24 188 -61 186 -209 328 -391 377 -69
19 -199 26 -266 16z m188 -142 c179 -38 314 -186 337 -368 27 -211 -63 -392
-236 -478 -66 -32 -86 -37 -165 -41 -163 -8 -258 28 -358 134 -78 83 -102 146
-108 280 -6 151 27 251 115 346 104 110 263 159 415 127z"/>
<path d="M8917 7833 c-4 -3 -7 -260 -7 -570 l0 -563 75 0 75 0 0 441 c0 382 2
440 14 430 8 -7 79 -94 157 -194 78 -100 175 -222 214 -272 104 -131 245 -313
280 -362 l30 -43 73 0 72 0 0 565 0 565 -75 0 -75 0 0 -432 -1 -433 -27 31
c-15 17 -66 80 -113 140 -47 60 -192 243 -323 407 l-236 297 -64 0 c-34 0 -66
-3 -69 -7z"/>
<path d="M13397 7833 c-1 -1 -1 -256 1 -567 l2 -566 75 0 75 0 2 440 3 440
102 -132 c56 -73 166 -214 243 -313 78 -99 185 -237 238 -307 l97 -127 73 0
72 -1 0 565 0 565 -75 0 -75 0 -2 -432 -3 -432 -342 434 -343 433 -71 1 c-39
1 -71 0 -72 -1z"/>
<path d="M10340 7265 l0 -565 75 0 75 0 0 565 0 565 -75 0 -75 0 0 -565z"/>
<path d="M10940 7265 l0 -565 123 0 c481 -1 575 -1 595 0 22 0 23 3 20 68 l-3
67 -292 3 -293 2 0 495 0 495 -75 0 -75 0 0 -565z"/>
<path d="M8429 6165 c-32 -18 -48 -53 -56 -126 l-6 -59 -34 0 c-30 0 -34 -3
-31 -22 2 -19 8 -22 36 -20 l32 4 0 -196 0 -196 30 0 30 0 0 195 0 195 50 0
c43 0 50 3 50 20 0 17 -7 20 -50 20 l-50 0 0 54 c0 47 4 57 27 76 27 21 50 22
94 5 24 -9 34 36 12 53 -22 16 -101 15 -134 -3z"/>
<path d="M8721 6154 c-33 -27 -51 -76 -51 -136 l0 -38 -45 0 c-38 0 -45 -3
-45 -20 0 -17 7 -20 45 -20 l45 0 0 -195 0 -195 30 0 30 0 0 195 0 195 55 0
c52 0 55 1 55 25 0 24 -3 25 -55 25 l-55 0 0 50 c0 80 36 104 112 75 13 -5 19
0 24 20 9 35 -7 45 -68 45 -35 0 -54 -6 -77 -26z"/>
<path d="M11680 6045 l0 -65 -44 0 c-41 0 -43 -1 -38 -26 4 -22 9 -25 41 -22
l36 3 5 -165 c3 -91 9 -173 13 -182 10 -20 66 -48 96 -48 12 0 37 7 57 15 30
12 34 17 25 34 -9 17 -15 18 -39 9 -40 -15 -81 -3 -93 29 -5 14 -8 89 -7 167
l3 141 63 3 c53 3 62 6 62 22 0 16 -9 19 -62 22 l-63 3 -3 63 c-3 58 -4 62
-27 62 -24 0 -25 -3 -25 -65z"/>
<path d="M7412 5977 c-18 -7 -48 -25 -68 -41 -96 -76 -100 -252 -8 -338 77
-72 210 -78 297 -14 32 23 34 37 8 53 -16 10 -22 9 -32 -3 -40 -48 -143 -59
-200 -21 -149 100 -88 327 88 327 36 0 100 -30 115 -54 5 -7 14 -4 28 10 l21
21 -31 26 c-53 45 -147 59 -218 34z"/>
<path d="M7902 5977 c-49 -18 -100 -63 -122 -107 -27 -53 -27 -156 -1 -208 85
-165 318 -164 403 2 16 31 19 54 16 112 -3 61 -8 79 -34 116 -16 24 -49 54
-72 66 -51 28 -142 37 -190 19z m141 -51 c68 -28 115 -114 103 -190 -15 -94
-87 -152 -178 -144 -55 6 -92 28 -125 77 -94 138 48 321 200 257z"/>
<path d="M9078 5980 c-52 -16 -98 -52 -126 -98 -22 -39 -27 -59 -27 -118 0
-61 4 -77 30 -120 59 -96 183 -130 290 -80 63 29 82 50 65 71 -17 21 -27 19
-61 -10 -79 -65 -185 -46 -247 46 -13 18 -22 42 -20 52 3 19 12 20 187 18
l183 -2 -7 48 c-22 147 -139 232 -267 193z m143 -67 c30 -25 68 -92 69 -120 0
-10 -38 -13 -155 -13 -150 0 -155 1 -155 20 0 29 23 70 57 101 35 33 47 37
105 38 37 1 53 -5 79 -26z"/>
<path d="M9625 5981 c-95 -23 -165 -122 -165 -234 0 -51 48 -137 95 -170 77
-53 195 -46 269 15 36 30 37 31 17 45 -19 13 -24 11 -57 -13 -52 -40 -135 -45
-184 -12 -42 29 -82 85 -78 111 3 19 12 20 182 18 l178 -2 -7 48 c-22 149
-120 225 -250 194z m115 -56 c37 -19 70 -66 77 -110 l6 -35 -152 0 c-147 0
-151 1 -151 21 0 35 40 95 79 117 42 25 100 28 141 7z"/>
<path d="M10342 5970 c-56 -25 -80 -75 -63 -131 14 -45 46 -67 146 -99 39 -12
78 -29 88 -38 31 -27 20 -75 -24 -97 -42 -22 -99 -18 -158 12 -52 25 -54 26
-68 7 -12 -16 -11 -21 9 -36 27 -21 110 -48 147 -48 77 0 154 46 164 97 6 33
-9 87 -29 104 -9 7 -56 27 -107 44 -105 36 -138 66 -116 106 7 13 19 29 28 36
25 19 102 15 146 -7 34 -17 41 -18 54 -6 21 22 0 43 -62 61 -67 20 -103 19
-155 -5z"/>
<path d="M11263 5971 c-96 -44 -96 -154 -1 -198 24 -11 68 -28 98 -38 65 -20
104 -57 94 -88 -18 -62 -112 -76 -203 -31 -50 25 -53 26 -66 8 -12 -17 -12
-21 3 -33 57 -45 169 -62 237 -37 59 23 85 57 85 111 0 56 -34 90 -109 111
-84 23 -132 46 -148 70 -13 20 -12 26 1 52 8 16 23 32 31 36 33 12 102 5 140
-14 34 -17 41 -18 54 -6 21 22 0 43 -62 61 -66 20 -103 19 -154 -4z"/>
<path d="M12117 5980 c-115 -35 -181 -198 -128 -315 59 -130 236 -167 346 -71
39 33 39 33 17 45 -19 10 -27 8 -57 -15 -62 -47 -143 -48 -208 -2 -29 21 -73
101 -63 117 3 4 87 6 187 3 l182 -5 -6 51 c-17 146 -138 232 -270 192z m140
-60 c34 -20 73 -85 73 -120 0 -19 -6 -20 -150 -20 -149 0 -150 0 -150 23 0 31
41 94 76 117 38 26 109 26 151 0z"/>
<path d="M12665 5976 c-17 -7 -36 -20 -44 -29 -20 -25 -34 -21 -29 8 5 22 2
25 -23 25 l-29 0 0 -215 0 -215 28 0 27 0 1 143 c1 155 9 186 60 226 32 25 99
28 132 5 47 -33 55 -68 53 -226 l-1 -148 30 0 30 0 0 140 c0 159 14 206 70
235 50 26 97 20 136 -19 38 -38 39 -39 34 -233 l-2 -123 31 0 31 0 0 158 c0
133 -3 163 -19 199 -45 99 -199 113 -273 24 l-27 -31 -17 30 c-33 55 -128 77
-199 46z"/>
<path d="M10670 5974 c0 -3 43 -101 96 -216 106 -232 107 -237 49 -295 -35
-35 -49 -39 -91 -23 -30 12 -29 12 -38 -17 -6 -19 -2 -23 32 -32 90 -25 146
21 202 162 18 45 65 157 106 249 41 92 74 170 74 173 0 3 -13 5 -29 5 -28 0
-31 -5 -102 -180 -40 -99 -76 -180 -80 -180 -4 0 -11 12 -17 28 -5 15 -40 96
-77 180 -64 145 -68 152 -96 152 -16 0 -29 -3 -29 -6z"/>
</g>
</svg>
